<?xml version="1.0" encoding="utf-8" ?><svg xmlns="http://www.w3.org/2000/svg" xmlns:xlink="http://www.w3.org/1999/xlink" width="2100" height="2100" viewBox="0 0 2100 2100"><path fill="#2B7FFE" transform="matrix(-4.09184 0.00972203 -0.00972203 -4.09184 2100.01 2095.02)" d="M250.694 55.1472C361.54 52.3375 453.604 140.062 456.145 250.914C458.687 361.766 370.739 453.618 259.881 455.89C149.402 458.155 57.9335 370.574 55.401 260.101C52.8685 149.628 140.228 57.9474 250.694 55.1472ZM148.024 299.482C150.744 301.7 153.543 304.528 155.98 307.072C162.47 313.846 169.253 320.25 175.956 326.797C172.989 330.166 168.707 334.564 165.327 337.528C167.508 338.898 173.243 344.463 174.743 346.556C177.817 343.093 181.425 339.594 184.776 336.399C189.121 340.256 194.739 346.574 199.037 350.885C202.217 354.06 205.445 357.186 208.72 360.262C210.053 361.502 211.544 362.684 212.808 363.94L214.564 361.8C215.913 359.944 219.001 356.986 220.7 355.289L230.83 345.177L265.845 310.143L328.686 247.233L344.832 231.014C350.691 225.061 356.76 218.799 363.029 213.282C354.977 204.312 344.337 193.942 335.409 185.587C339.158 181.9 343.64 177.811 347.23 174.167C344.216 170.811 341.154 167.741 337.96 164.557C336.444 166.545 328.43 175.097 326.409 176.57C318.033 168.619 309.651 160.799 301.631 152.472C300.877 151.69 299.665 150.38 298.855 149.717C277.459 170.387 257.546 190.886 236.667 211.939L191.053 257.147L164.197 284.165C160.365 288.012 152.133 296.469 148.024 299.482Z"/><path fill="#2B7FFE" transform="matrix(-4.09184 0.00972203 -0.00972203 -4.09184 2100.01 2095.02)" d="M316.088 190.78C317.236 191.083 319.827 194.083 320.79 195.109C319.905 197.015 318.539 199.004 317.484 200.847C314.882 205.393 312.162 209.337 310.539 214.371C310.311 215.079 309.53 216.854 309.051 217.43C305.816 221.322 301.827 225.128 298.03 228.489C297.562 228.904 297.566 228.816 297.17 228.755C296.354 228.057 296.107 227.258 295.65 226.268C294.304 228.046 288.983 232.496 286.994 234.427C281.099 240.15 275.354 245.77 269.942 251.978C270.742 266.204 265.249 270.885 251.266 270.786C245.515 276.157 232.739 291.332 226.709 294.617C227.561 295.549 228.758 296.571 229.71 297.435C227.503 300.123 217.757 309.762 215.235 311.495C214.456 310.752 213.672 310.015 212.883 309.283C206.754 312.709 201.896 316.547 195.232 319.881C194.032 319.116 192.02 317.502 191.738 316.054C191.496 314.816 201.289 301.434 202.637 299.496C201.785 298.56 200.678 297.528 199.762 296.628C202.458 293.491 210.74 284.808 213.975 282.661C214.997 283.462 215.699 284.187 216.609 285.096C220.167 280.533 236.668 263.487 241.202 260.729C240.436 258.505 240.112 256.153 240.248 253.805C240.905 243.442 251.196 241.071 259.682 241.737C262.335 238.526 266.085 234.921 269.09 231.902C274.237 226.637 279.512 221.501 284.911 216.497L282.572 214.685C284.338 212.707 294.028 202.618 295.643 201.925C296.291 202.093 296.663 202.387 297.225 202.745C298.529 202.642 300.974 200.503 302.228 199.676C306.623 196.779 311.292 192.969 316.088 190.78Z"/></svg>